0
SECTION
2
HEADER
9
$INSUNITS
70
4
9
$ACADVER
1
AC1014
9
$HANDSEED
5
FFFF
0
ENDSEC
0
SECTION
2
TABLES
0
TABLE
2
VPORT
5
8
100
AcDbSymbolTable
0
ENDTAB
0
TABLE
2
LTYPE
5
5
100
AcDbSymbolTable
0
LTYPE
5
14
100
AcDbSymbolTableRecord
100
AcDbLinetypeTableRecord
2
BYBLOCK
70
0
0
LTYPE
5
15
100
AcDbSymbolTableRecord
100
AcDbLinetypeTableRecord
2
BYLAYER
70
0
0
ENDTAB
0
TABLE
2
LAYER
5
2
100
AcDbSymbolTable
70
2
0
LAYER
5
50
100
AcDbSymbolTableRecord
100
AcDbLayerTableRecord
2
0
70
0
6
CONTINUOUS
0
ENDTAB
0
TABLE
2
STYLE
5
3
100
AcDbSymbolTable
70
1
0
STYLE
5
11
100
AcDbSymbolTableRecord
100
AcDbTextStyleTableRecord
2
STANDARD
70
0
0
ENDTAB
0
TABLE
2
VIEW
5
6
100
AcDbSymbolTable
70
0
0
ENDTAB
0
TABLE
2
UCS
5
7
100
AcDbSymbolTable
70
0
0
ENDTAB
0
TABLE
2
APPID
5
9
100
AcDbSymbolTable
70
2
0
APPID
5
12
100
AcDbSymbolTableRecord
100
AcDbRegAppTableRecord
2
ACAD
70
0
0
ENDTAB
0
TABLE
2
DIMSTYLE
5
A
100
AcDbSymbolTable
70
1
0
ENDTAB
0
TABLE
2
BLOCK_RECORD
5
1
100
AcDbSymbolTable
70
1
0
BLOCK_RECORD
5
1F
100
AcDbSymbolTableRecord
100
AcDbBlockTableRecord
2
*MODEL_SPACE
0
BLOCK_RECORD
5
1B
100
AcDbSymbolTableRecord
100
AcDbBlockTableRecord
2
*PAPER_SPACE
0
ENDTAB
0
ENDSEC
0
SECTION
2
BLOCKS
0
BLOCK
5
20
100
AcDbEntity
100
AcDbBlockBegin
2
*MODEL_SPACE
0
ENDBLK
5
21
100
AcDbEntity
100
AcDbBlockEnd
0
BLOCK
5
1C
100
AcDbEntity
100
AcDbBlockBegin
2
*PAPER_SPACE
0
ENDBLK
5
1D
100
AcDbEntity
100
AcDbBlockEnd
0
ENDSEC
0
SECTION
2
ENTITIES
0
LWPOLYLINE
5
100
100
AcDbEntity
8
0
100
AcDbPolyline
90
52
70
1
43
0.0
10
-31.000000000000007
20
-47
10
-31.000000000000007
20
-37.024505931000007
10
-22
20
-37.024505931000007
10
-21.999999999729241
20
-12.999999999187729
10
-31.000000000000007
20
-9.0000000000000036
10
-31.000000000000007
20
2.9999999999999942
10
-25.000000000000007
20
2.9999999999999947
10
-25.000000000000007
20
1.9999999999999978
42
2.4142135623730931
10
-23.000000000000007
20
-3.7359004778636524e-15
10
-22
20
-3.8857805861880479e-15
10
-22
20
-4.0000000000000027
10
-13.000000000000007
20
-4.0000000000000027
10
-13.000000000000007
20
-3.7359004778636524e-15
10
-12.000000000000009
20
-2.7481421331532294e-15
42
2.4142135623730949
10
-10.000000000000009
20
1.9999999999999978
10
-10.000000000000009
20
2.9999999999999942
10
1.9999999999999929
20
2.9999999999999947
10
1.9999999999999927
20
1.9999999999999976
42
2.4142135623730931
10
3.9999999999999947
20
-3.7359004778636524e-15
10
4.9999999999999911
20
-3.8857805861880479e-15
10
4.9999999999999911
20
-4.0000000000000027
10
13.999999999999995
20
-4.0000000000000027
10
13.999999999999995
20
-3.7359004778636524e-15
10
15.000000000000002
20
-2.7481421331532294e-15
42
2.4142135623730931
10
17
20
1.9999999999999978
10
17
20
2.9999999999999942
10
23
20
2.9999999999999938
10
23
20
-8.0000000000000036
10
13.999999999999995
20
-13.000000000000004
10
13.999999999999995
20
-31.000000000000007
10
23.000000000270767
20
-34.999999999187729
10
23
20
-47
10
17
20
-47
10
17
20
-46.000000000000007
42
2.4142135623730949
10
14.999999999999991
20
-44
10
13.999999999999995
20
-44
10
13.999999999999995
20
-40
10
4.9999999999999911
20
-40
10
4.9999999999999911
20
-44
10
3.9999999999999929
20
-44
42
2.4142135623730931
10
1.9999999999999929
20
-46.000000000000007
10
1.9999999999999929
20
-47
10
-10.000000000000009
20
-47
10
-10.000000000000009
20
-46.000000000000007
42
2.4142135623730949
10
-12.000000000000002
20
-44
10
-13.000000000000007
20
-44
10
-13.000000000000007
20
-40
10
-22
20
-40
10
-22
20
-44
10
-23.000000000000007
20
-44
42
2.4142135623730949
10
-25.000000000000007
20
-46.000000000000007
10
-25.000000000000007
20
-47
0
CIRCLE
5
101
100
AcDbEntity
8
0
100
AcDbCircle
10
3.4999999999999964
20
-30.000000000000004
30
0
40
1.5000000000000002
210
0
220
-2.4651903288156619e-32
230
1
0
CIRCLE
5
102
100
AcDbEntity
8
0
100
AcDbCircle
10
3.4999999999999964
20
-14.000000000000004
30
0
40
1.5000000000000002
210
0
220
-2.4651903288156619e-32
230
1
0
CIRCLE
5
103
100
AcDbEntity
8
0
100
AcDbCircle
10
-11.500000000000004
20
-14.000000000000004
30
0
40
1.5000000000000002
210
0
220
-2.4651903288156619e-32
230
1
0
CIRCLE
5
104
100
AcDbEntity
8
0
100
AcDbCircle
10
-11.500000000000004
20
-30.000000000000004
30
0
40
1.5000000000000002
210
0
220
-2.4651903288156619e-32
230
1
0
ENDSEC
0
SECTION
2
OBJECTS
0
DICTIONARY
5
C
100
AcDbDictionary
3
ACAD_GROUP
350
D
3
ACAD_MLINESTYLE
350
17
0
DICTIONARY
5
D
100
AcDbDictionary
0
DICTIONARY
5
1A
330
C
100
AcDbDictionary
0
DICTIONARY
5
17
100
AcDbDictionary
0
ENDSEC
0
EOF
