0
SECTION
2
HEADER
9
$INSUNITS
70
4
9
$ACADVER
1
AC1014
9
$HANDSEED
5
FFFF
0
ENDSEC
0
SECTION
2
TABLES
0
TABLE
2
VPORT
5
8
100
AcDbSymbolTable
0
ENDTAB
0
TABLE
2
LTYPE
5
5
100
AcDbSymbolTable
0
LTYPE
5
14
100
AcDbSymbolTableRecord
100
AcDbLinetypeTableRecord
2
BYBLOCK
70
0
0
LTYPE
5
15
100
AcDbSymbolTableRecord
100
AcDbLinetypeTableRecord
2
BYLAYER
70
0
0
ENDTAB
0
TABLE
2
LAYER
5
2
100
AcDbSymbolTable
70
2
0
LAYER
5
50
100
AcDbSymbolTableRecord
100
AcDbLayerTableRecord
2
0
70
0
6
CONTINUOUS
0
ENDTAB
0
TABLE
2
STYLE
5
3
100
AcDbSymbolTable
70
1
0
STYLE
5
11
100
AcDbSymbolTableRecord
100
AcDbTextStyleTableRecord
2
STANDARD
70
0
0
ENDTAB
0
TABLE
2
VIEW
5
6
100
AcDbSymbolTable
70
0
0
ENDTAB
0
TABLE
2
UCS
5
7
100
AcDbSymbolTable
70
0
0
ENDTAB
0
TABLE
2
APPID
5
9
100
AcDbSymbolTable
70
2
0
APPID
5
12
100
AcDbSymbolTableRecord
100
AcDbRegAppTableRecord
2
ACAD
70
0
0
ENDTAB
0
TABLE
2
DIMSTYLE
5
A
100
AcDbSymbolTable
70
1
0
ENDTAB
0
TABLE
2
BLOCK_RECORD
5
1
100
AcDbSymbolTable
70
1
0
BLOCK_RECORD
5
1F
100
AcDbSymbolTableRecord
100
AcDbBlockTableRecord
2
*MODEL_SPACE
0
BLOCK_RECORD
5
1B
100
AcDbSymbolTableRecord
100
AcDbBlockTableRecord
2
*PAPER_SPACE
0
ENDTAB
0
ENDSEC
0
SECTION
2
BLOCKS
0
BLOCK
5
20
100
AcDbEntity
100
AcDbBlockBegin
2
*MODEL_SPACE
0
ENDBLK
5
21
100
AcDbEntity
100
AcDbBlockEnd
0
BLOCK
5
1C
100
AcDbEntity
100
AcDbBlockBegin
2
*PAPER_SPACE
0
ENDBLK
5
1D
100
AcDbEntity
100
AcDbBlockEnd
0
ENDSEC
0
SECTION
2
ENTITIES
0
LWPOLYLINE
5
100
100
AcDbEntity
8
0
100
AcDbPolyline
90
4
70
1
43
0.0
10
-73.100000000000009
20
12.700000465
10
-70.900000000000006
20
12.700000465
10
-70.900000000000006
20
18.900000465000002
10
-73.100000000000009
20
18.900000465000002
0
LWPOLYLINE
5
101
100
AcDbEntity
8
0
100
AcDbPolyline
90
39
70
1
43
0.0
10
-46.325178521000012
20
-12.508551525999998
10
-53.000000000000007
20
-1.0000000000000009
10
-53.000000000000007
20
7.6000004650000008
10
-55.000000000000007
20
7.6000004650000008
10
-55.000000000000007
20
9
42
0.41421356237309537
10
-56.000000000000007
20
10
10
-66
20
10
42
0.41421356237309537
10
-67.000000000000014
20
9
10
-67.000000000000014
20
7.6000004650000008
10
-69
20
7.6000004650000008
10
-69
20
-46.000000000000007
42
-0.41421356237309503
10
-71
20
-48.000000000000007
10
-112.00000000000001
20
-48
42
-0.41421356237309503
10
-114
20
-46.000000000000007
10
-114.00000000000003
20
-42
42
-0.41421356237309503
10
-112.00000000000001
20
-40
10
-81.000000000000014
20
-40
42
0.41421356237309437
10
-79
20
-38.000000000000007
10
-79
20
-15
10
-86.000000000000014
20
-14.999999999999993
42
-0.41421356237309537
10
-88
20
-12.999999999999998
10
-88
20
11.912500000000001
10
-83.996164519544848
20
11.912500000000001
42
0.95712618912468328
10
-82.000000000000014
20
12.000000000000002
10
-82.000000000000014
20
15
42
0.95712618912468328
10
-83.996164519544848
20
15.0875
10
-88
20
15.0875
10
-88
20
21
42
-0.41421356237309503
10
-86.000000000000014
20
23.000000000000004
10
-36.000000000000014
20
23.000000000000011
42
-0.41421356237309503
10
-34
20
21
10
-34
20
15.0875
10
-38.003835480455166
20
15.0875
42
0.95712618912468328
10
-40
20
15
10
-40.000000000000007
20
12.000000000000002
42
0.95712618912467839
10
-38.003835480455166
20
11.912500000000001
10
-34
20
11.912500000000001
10
-34
20
-1.0000000000000009
10
-37.221032402073497
20
-11.47019342097739
42
-0.65429991110736452
0
LWPOLYLINE
5
102
100
AcDbEntity
8
0
100
AcDbPolyline
90
4
70
1
43
0.0
10
-67.000000000000028
20
11.912500000000001
42
-0.99999999999999989
10
-67.000000000000014
20
15.0875
10
-55.000000000000007
20
15.0875
42
-0.99999999999999989
10
-55.000000000000007
20
11.912500000000001
0
LWPOLYLINE
5
103
100
AcDbEntity
8
0
100
AcDbPolyline
90
4
70
1
43
0.0
10
-70.900000000000006
20
3.7000004649999996
10
-70.900000000000006
20
9.9000004650000015
10
-73.100000000000009
20
9.9000004650000015
10
-73.100000000000009
20
3.7000004649999996
0
LWPOLYLINE
5
104
100
AcDbEntity
8
0
100
AcDbPolyline
90
4
70
1
43
0.0
10
-43.900000000000006
20
12.700000465
10
-43.900000000000006
20
18.900000465000002
10
-46.099999999999994
20
18.900000465000002
10
-46.099999999999994
20
12.700000465
0
LWPOLYLINE
5
105
100
AcDbEntity
8
0
100
AcDbPolyline
90
4
70
1
43
0.0
10
-51.100000000000001
20
9.9000004650000015
10
-51.100000000000001
20
3.7000004649999996
10
-48.900000000000013
20
3.7000004649999996
10
-48.900000000000013
20
9.9000004650000015
0
LWPOLYLINE
5
106
100
AcDbEntity
8
0
100
AcDbPolyline
90
4
70
1
43
0.0
10
-78.100000000000009
20
12.700000465
10
-75.900000000000006
20
12.700000465
10
-75.900000000000006
20
18.900000465000002
10
-78.100000000000009
20
18.900000465000002
0
LWPOLYLINE
5
107
100
AcDbEntity
8
0
100
AcDbPolyline
90
4
70
1
43
0.0
10
-43.900000000000006
20
3.7000004649999996
10
-43.900000000000006
20
9.9000004650000015
10
-46.099999999999994
20
9.9000004650000015
10
-46.099999999999994
20
3.7000004649999996
0
LWPOLYLINE
5
108
100
AcDbEntity
8
0
100
AcDbPolyline
90
4
70
1
43
0.0
10
-75.900000000000006
20
3.7000004649999996
10
-75.900000000000006
20
9.9000004650000015
10
-78.100000000000009
20
9.9000004650000015
10
-78.100000000000009
20
3.7000004649999996
0
CIRCLE
5
109
100
AcDbEntity
8
0
100
AcDbCircle
10
-76
20
-10
30
0
40
2
210
0
220
0
230
1
0
CIRCLE
5
110
100
AcDbEntity
8
0
100
AcDbCircle
10
-110.00000000000001
20
-44
30
0
40
2
210
0
220
0
230
1
0
LWPOLYLINE
5
111
100
AcDbEntity
8
0
100
AcDbPolyline
90
4
70
1
43
0.0
10
-51.100000000000001
20
12.700000465
10
-48.900000000000013
20
12.700000465
10
-48.900000000000013
20
18.900000465000002
10
-51.100000000000001
20
18.900000465000002
0
CIRCLE
5
112
100
AcDbEntity
8
0
100
AcDbCircle
10
-76
20
-44
30
0
40
2
210
0
220
0
230
1
0
CIRCLE
5
113
100
AcDbEntity
8
0
100
AcDbCircle
10
-42.000000000000014
20
-10
30
0
40
2
210
0
220
0
230
1
0
LWPOLYLINE
5
114
100
AcDbEntity
8
0
100
AcDbPolyline
90
52
70
1
43
0.0
10
1.9999999999999938
20
-46.000000000000007
42
-2.4142135623730931
10
3.9999999999999929
20
-44
10
4.9999999999999911
20
-44
10
4.9999999999999911
20
-40
10
13.999999999999995
20
-40
10
13.999999999999995
20
-44
10
15
20
-44
42
-2.4142135623730949
10
17
20
-46.000000000000007
10
17
20
-47
10
23
20
-47
10
23.000000000270767
20
-34.999999999187729
10
13.999999999999995
20
-31.000000000000007
10
13.999999999999995
20
-13.000000000000004
10
23
20
-8.0000000000000036
10
23
20
2.9999999999999947
10
17
20
2.9999999999999942
10
17
20
1.9999999999999982
42
-2.4142135623730931
10
15.000000000000002
20
-2.7481421331532294e-15
10
13.999999999999995
20
-3.8857805861880479e-15
10
13.999999999999995
20
-4.0000000000000027
10
4.9999999999999911
20
-4.0000000000000027
10
4.9999999999999911
20
-3.8857805861880479e-15
10
3.9999999999999938
20
-3.3518530927500682e-15
42
-2.4142135623730931
10
1.9999999999999927
20
1.9999999999999976
10
1.9999999999999929
20
2.9999999999999947
10
-10.000000000000009
20
2.9999999999999942
10
-10.000000000000009
20
1.9999999999999969
42
-2.4142135623730949
10
-12.000000000000009
20
-2.7481421331532294e-15
10
-13.000000000000007
20
-3.8857805861880479e-15
10
-13.000000000000007
20
-4.0000000000000027
10
-22
20
-4.0000000000000027
10
-22
20
-3.8857805861880479e-15
10
-23.000000000000007
20
-3.7681867269845019e-15
42
-2.4142135623730931
10
-25.000000000000007
20
1.9999999999999978
10
-25.000000000000007
20
2.9999999999999947
10
-31.000000000000007
20
2.9999999999999938
10
-31.000000000000007
20
-9.0000000000000036
10
-21.999999999729241
20
-12.999999999187729
10
-22
20
-37.024505931000007
10
-31.000000000000007
20
-37.024505931000007
10
-31.000000000000007
20
-47
10
-25.000000000000007
20
-47
10
-25.000000000000007
20
-46.000000000000007
42
-2.4142135623730949
10
-23.000000000000007
20
-44
10
-22
20
-44
10
-22
20
-40
10
-13.000000000000007
20
-40
10
-13.000000000000007
20
-44
10
-12.000000000000011
20
-44
42
-2.4142135623730949
10
-10.000000000000009
20
-46.000000000000007
10
-10.000000000000009
20
-47
10
1.9999999999999929
20
-47
0
CIRCLE
5
115
100
AcDbEntity
8
0
100
AcDbCircle
10
-11.500000000000004
20
-30.000000000000004
30
0
40
1.5000000000000002
210
0
220
-2.4651903288156619e-32
230
1
0
CIRCLE
5
116
100
AcDbEntity
8
0
100
AcDbCircle
10
3.4999999999999964
20
-14.000000000000004
30
0
40
1.5000000000000002
210
0
220
-2.4651903288156619e-32
230
1
0
CIRCLE
5
117
100
AcDbEntity
8
0
100
AcDbCircle
10
-11.500000000000004
20
-14.000000000000004
30
0
40
1.5000000000000002
210
0
220
-2.4651903288156619e-32
230
1
0
CIRCLE
5
118
100
AcDbEntity
8
0
100
AcDbCircle
10
3.4999999999999964
20
-30.000000000000004
30
0
40
1.5000000000000002
210
0
220
-2.4651903288156619e-32
230
1
0
ARC
5
119
100
AcDbEntity
8
0
100
AcDbCircle
10
31.000000000000007
20
15.000000000000002
30
0
40
1.0000000000000009
210
0
220
0
230
1
100
AcDbArc
50
0
51
174.98019986832199
0
LINE
5
120
100
AcDbEntity
8
0
100
AcDbLine
10
32.000000000000007
20
15
30
0
11
32
21
12.000000000000002
31
0
0
LWPOLYLINE
5
121
100
AcDbEntity
8
0
100
AcDbPolyline
90
4
70
1
43
0.0
10
43.000000000000007
20
18.800000465000004
10
41.000000000000007
20
18.800000465000004
10
41.000000000000007
20
12.800000464999997
10
43.000000000000007
20
12.800000464999997
0
LWPOLYLINE
5
122
100
AcDbEntity
8
0
100
AcDbPolyline
90
4
70
1
43
0.0
10
36.000000000000007
20
18.800000465000004
10
36.000000000000007
20
12.800000464999997
10
38.000000000000007
20
12.800000464999997
10
38.000000000000007
20
18.800000465000004
0
ARC
5
123
100
AcDbEntity
8
0
100
AcDbCircle
10
28.000000000000007
20
21
30
0
40
2.0000000000000062
210
0
220
-0
230
1
100
AcDbArc
50
90
51
180
0
LWPOLYLINE
5
124
100
AcDbEntity
8
0
100
AcDbPolyline
90
4
70
1
43
0.0
10
47
20
11.912500000000001
42
-0.99999999999999989
10
47
20
15.0875
10
59.000000000000021
20
15.0875
42
-0.99999999999999989
10
59
20
11.912500000000001
0
LINE
5
125
100
AcDbEntity
8
0
100
AcDbLine
10
30.003835480455166
20
11.912500000000001
30
0
11
26.000000000000007
21
11.912500000000001
31
0
0
LWPOLYLINE
5
126
100
AcDbEntity
8
0
100
AcDbPolyline
90
4
70
1
43
0.0
10
41.000000000000007
20
3.8000004650000019
10
43.000000000000007
20
3.8000004650000019
10
43.000000000000007
20
9.8000004649999983
10
41.000000000000007
20
9.8000004649999983
0
LWPOLYLINE
5
127
100
AcDbEntity
8
0
100
AcDbPolyline
90
4
70
1
43
0.0
10
67.90000000000002
20
18.900000464999998
10
67.90000000000002
20
12.700000464999999
10
70.100000000000009
20
12.700000464999999
10
70.100000000000009
20
18.900000464999998
0
LWPOLYLINE
5
128
100
AcDbEntity
8
0
100
AcDbPolyline
90
4
70
1
43
0.0
10
65.099999999999994
20
12.700000464999999
10
65.099999999999994
20
18.900000464999998
10
62.900000000000006
20
18.900000464999998
10
62.900000000000006
20
12.700000464999999
0
LINE
5
129
100
AcDbEntity
8
0
100
AcDbLine
10
26.000000000000007
20
21
30
0
11
26.000000000000007
21
15.0875
31
0
0
LINE
5
130
100
AcDbEntity
8
0
100
AcDbLine
10
26.000000000000007
20
15.0875
30
0
11
30.003835480455166
21
15.0875
31
0
0
LWPOLYLINE
5
131
100
AcDbEntity
8
0
100
AcDbPolyline
90
4
70
1
43
0.0
10
70.100000000000009
20
3.700000465000004
10
70.100000000000009
20
9.9000004650000051
10
67.90000000000002
20
9.9000004650000051
10
67.90000000000002
20
3.700000465000004
0
LWPOLYLINE
5
132
100
AcDbEntity
8
0
100
AcDbPolyline
90
4
70
1
43
0.0
10
65.099999999999994
20
9.9000004650000051
10
62.900000000000006
20
9.9000004650000051
10
62.900000000000006
20
3.700000465000004
10
65.099999999999994
20
3.700000465000004
0
LINE
5
133
100
AcDbEntity
8
0
100
AcDbLine
10
80
20
15.0875
30
0
11
80
21
20.999999999999996
31
0
0
LINE
5
134
100
AcDbEntity
8
0
100
AcDbLine
10
47
20
7.6000004650000008
30
0
11
47
21
9.0000000000000036
31
0
0
LINE
5
135
100
AcDbEntity
8
0
100
AcDbLine
10
75.996164519544848
20
15.0875
30
0
11
80
21
15.0875
31
0
0
LINE
5
136
100
AcDbEntity
8
0
100
AcDbLine
10
48.000000000000007
20
10
30
0
11
58.000000000000007
21
10
31
0
0
LINE
5
137
100
AcDbEntity
8
0
100
AcDbLine
10
42.869320892008275
20
-11.13565578000193
30
0
11
45.000000000000007
21
-2.0000000000000018
31
0
0
ARC
5
138
100
AcDbEntity
8
0
100
AcDbCircle
10
73
20
-46.000000000000007
30
0
40
2.0000000000000018
210
0
220
0
230
1
100
AcDbArc
50
-90
51
0
0
LINE
5
139
100
AcDbEntity
8
0
100
AcDbLine
10
45.000000000000007
20
7.6000004650000008
30
0
11
47
21
7.6000004650000008
31
0
0
LINE
5
140
100
AcDbEntity
8
0
100
AcDbLine
10
45.000000000000007
20
-2.0000000000000018
30
0
11
45.000000000000007
21
7.6000004650000008
31
0
0
ARC
5
141
100
AcDbEntity
8
0
100
AcDbCircle
10
67
20
-46.000000000000007
30
0
40
1.9999999999999929
210
0
220
0
230
1
100
AcDbArc
50
180
51
270
0
ARC
5
142
100
AcDbEntity
8
0
100
AcDbCircle
10
38.000000000000007
20
-10
30
0
40
4.9999999988609121
210
0
220
0
230
1
100
AcDbArc
50
201.86885232271339
51
346.8717704792146
0
ARC
5
143
100
AcDbEntity
8
0
100
AcDbCircle
10
31.000000000000007
20
12
30
0
40
0.99999999999999845
210
0
220
0
230
1
100
AcDbArc
50
-174.98019986832199
51
0
0
LINE
5
144
100
AcDbEntity
8
0
100
AcDbLine
10
77
20
-19
30
0
11
78
21
-19.000000000000004
31
0
0
ARC
5
145
100
AcDbEntity
8
0
100
AcDbCircle
10
75.000000000000014
20
12
30
0
40
0.99999999999999645
210
0
220
0
230
1
100
AcDbArc
50
180
51
354.98019986832196
0
ARC
5
146
100
AcDbEntity
8
0
100
AcDbCircle
10
77
20
-21.000000000000007
30
0
40
2.000000000000004
210
0
220
-0
230
1
100
AcDbArc
50
90
51
180
0
CIRCLE
5
147
100
AcDbEntity
8
0
100
AcDbCircle
10
38.000000000000007
20
-10
30
0
40
2
210
0
220
0
230
1
0
LINE
5
148
100
AcDbEntity
8
0
100
AcDbLine
10
78
20
23.000000000000004
30
0
11
28.000000000000007
21
23.000000000000007
31
0
0
LINE
5
149
100
AcDbEntity
8
0
100
AcDbLine
10
26.000000000000007
20
-0.99999999999999645
30
0
11
33.359805581276525
21
-11.862416641102786
31
0
0
LINE
5
150
100
AcDbEntity
8
0
100
AcDbLine
10
59
20
7.6000004650000008
30
0
11
61.000000000000007
21
7.6000004650000008
31
0
0
LINE
5
151
100
AcDbEntity
8
0
100
AcDbLine
10
74.000000000000014
20
12.000000000000002
30
0
11
74.000000000000014
21
15
31
0
0
LINE
5
152
100
AcDbEntity
8
0
100
AcDbLine
10
61.000000000000007
20
7.6000004650000008
30
0
11
61.000000000000007
21
-0.99999999999999645
31
0
0
LWPOLYLINE
5
153
100
AcDbEntity
8
0
100
AcDbPolyline
90
4
70
1
43
0.0
10
38.000000000000007
20
3.8000004650000019
10
38.000000000000007
20
9.8000004649999983
10
36.000000000000007
20
9.8000004649999983
10
36.000000000000007
20
3.8000004650000019
0
ARC
5
154
100
AcDbEntity
8
0
100
AcDbCircle
10
78
20
21
30
0
40
2.0000000000000018
210
-0
220
0
230
1
100
AcDbArc
50
0
51
90
0
LINE
5
155
100
AcDbEntity
8
0
100
AcDbLine
10
80
20
11.912500000000001
30
0
11
75.996164519544848
21
11.912500000000001
31
0
0
ARC
5
156
100
AcDbEntity
8
0
100
AcDbCircle
10
75.000000000000014
20
15.000000000000002
30
0
40
0.99999999999999845
210
0
220
-0
230
1
100
AcDbArc
50
5.0198001316780143
51
180
0
LINE
5
157
100
AcDbEntity
8
0
100
AcDbLine
10
59
20
9
30
0
11
59
21
7.6000004650000008
31
0
0
LINE
5
158
100
AcDbEntity
8
0
100
AcDbLine
10
61.000000000000007
20
-0.99999999999999645
30
0
11
65.000000000000014
21
-0.99999999999999645
31
0
0
LINE
5
159
100
AcDbEntity
8
0
100
AcDbLine
10
75
20
-46.000000000000007
30
0
11
75.000000000000014
21
-21
31
0
0
ARC
5
160
100
AcDbEntity
8
0
100
AcDbCircle
10
58.000000000000007
20
9.0000000000000018
30
0
40
0.99999999999999645
210
0
220
0
230
1
100
AcDbArc
50
0
51
90
0
LINE
5
161
100
AcDbEntity
8
0
100
AcDbLine
10
65.000000000000014
20
-0.99999999999999645
30
0
11
65.000000000000014
21
-46.000000000000007
31
0
0
LINE
5
162
100
AcDbEntity
8
0
100
AcDbLine
10
67
20
-48.000000000000007
30
0
11
73
21
-48.000000000000007
31
0
0
ARC
5
163
100
AcDbEntity
8
0
100
AcDbCircle
10
48.000000000000007
20
9.0000000000000018
30
0
40
0.99999999999999867
210
0
220
-0
230
1
100
AcDbArc
50
90
51
180
0
LINE
5
164
100
AcDbEntity
8
0
100
AcDbLine
10
80
20
-17
30
0
11
80
21
11.912500000000001
31
0
0
CIRCLE
5
165
100
AcDbEntity
8
0
100
AcDbCircle
10
72
20
-44
30
0
40
2
210
0
220
0
230
1
0
LINE
5
166
100
AcDbEntity
8
0
100
AcDbLine
10
26.000000000000007
20
11.912500000000001
30
0
11
26.000000000000007
21
-0.99999999999999645
31
0
0
ARC
5
167
100
AcDbEntity
8
0
100
AcDbCircle
10
78
20
-17
30
0
40
2.0000000000000018
210
0
220
0
230
1
100
AcDbArc
50
-90
51
0
0
CIRCLE
5
168
100
AcDbEntity
8
0
100
AcDbCircle
10
72
20
-10
30
0
40
2
210
0
220
0
230
1
0
ENDSEC
0
SECTION
2
OBJECTS
0
DICTIONARY
5
C
100
AcDbDictionary
3
ACAD_GROUP
350
D
3
ACAD_MLINESTYLE
350
17
0
DICTIONARY
5
D
100
AcDbDictionary
0
DICTIONARY
5
1A
330
C
100
AcDbDictionary
0
DICTIONARY
5
17
100
AcDbDictionary
0
ENDSEC
0
EOF
