0
SECTION
2
HEADER
9
$INSUNITS
70
4
9
$ACADVER
1
AC1014
9
$HANDSEED
5
FFFF
0
ENDSEC
0
SECTION
2
TABLES
0
TABLE
2
VPORT
5
8
100
AcDbSymbolTable
0
ENDTAB
0
TABLE
2
LTYPE
5
5
100
AcDbSymbolTable
0
LTYPE
5
14
100
AcDbSymbolTableRecord
100
AcDbLinetypeTableRecord
2
BYBLOCK
70
0
0
LTYPE
5
15
100
AcDbSymbolTableRecord
100
AcDbLinetypeTableRecord
2
BYLAYER
70
0
0
ENDTAB
0
TABLE
2
LAYER
5
2
100
AcDbSymbolTable
70
2
0
LAYER
5
50
100
AcDbSymbolTableRecord
100
AcDbLayerTableRecord
2
0
70
0
6
CONTINUOUS
0
ENDTAB
0
TABLE
2
STYLE
5
3
100
AcDbSymbolTable
70
1
0
STYLE
5
11
100
AcDbSymbolTableRecord
100
AcDbTextStyleTableRecord
2
STANDARD
70
0
0
ENDTAB
0
TABLE
2
VIEW
5
6
100
AcDbSymbolTable
70
0
0
ENDTAB
0
TABLE
2
UCS
5
7
100
AcDbSymbolTable
70
0
0
ENDTAB
0
TABLE
2
APPID
5
9
100
AcDbSymbolTable
70
2
0
APPID
5
12
100
AcDbSymbolTableRecord
100
AcDbRegAppTableRecord
2
ACAD
70
0
0
ENDTAB
0
TABLE
2
DIMSTYLE
5
A
100
AcDbSymbolTable
70
1
0
ENDTAB
0
TABLE
2
BLOCK_RECORD
5
1
100
AcDbSymbolTable
70
1
0
BLOCK_RECORD
5
1F
100
AcDbSymbolTableRecord
100
AcDbBlockTableRecord
2
*MODEL_SPACE
0
BLOCK_RECORD
5
1B
100
AcDbSymbolTableRecord
100
AcDbBlockTableRecord
2
*PAPER_SPACE
0
ENDTAB
0
ENDSEC
0
SECTION
2
BLOCKS
0
BLOCK
5
20
100
AcDbEntity
100
AcDbBlockBegin
2
*MODEL_SPACE
0
ENDBLK
5
21
100
AcDbEntity
100
AcDbBlockEnd
0
BLOCK
5
1C
100
AcDbEntity
100
AcDbBlockBegin
2
*PAPER_SPACE
0
ENDBLK
5
1D
100
AcDbEntity
100
AcDbBlockEnd
0
ENDSEC
0
SECTION
2
ENTITIES
0
LWPOLYLINE
5
100
100
AcDbEntity
8
0
100
AcDbPolyline
90
39
70
1
43
0.0
10
-83.996164519544848
20
15.0875
10
-88
20
15.0875
10
-88
20
21
42
-0.41421356237309503
10
-86.000000000000014
20
23.000000000000004
10
-36.000000000000014
20
23.000000000000011
42
-0.41421356237309503
10
-34
20
21
10
-34
20
15.0875
10
-38.003835480455166
20
15.0875
42
0.95712618912468328
10
-40
20
15
10
-40.000000000000007
20
12.000000000000002
42
0.95712618912467839
10
-38.003835480455166
20
11.912500000000001
10
-34
20
11.912500000000001
10
-34
20
-1.0000000000000009
10
-37.221032402073497
20
-11.47019342097739
42
-0.65429991110736452
10
-46.325178521000012
20
-12.508551525999998
10
-53.000000000000007
20
-1.0000000000000009
10
-53.000000000000007
20
7.6000004650000008
10
-55.000000000000007
20
7.6000004650000008
10
-55.000000000000007
20
9
42
0.41421356237309537
10
-56.000000000000007
20
10
10
-66
20
10
42
0.41421356237309537
10
-67.000000000000014
20
9
10
-67.000000000000014
20
7.6000004650000008
10
-69
20
7.6000004650000008
10
-69
20
-46.000000000000007
42
-0.41421356237309503
10
-71
20
-48.000000000000007
10
-112.00000000000001
20
-48
42
-0.41421356237309503
10
-114
20
-46.000000000000007
10
-114.00000000000003
20
-42
42
-0.41421356237309503
10
-112.00000000000001
20
-40
10
-81.000000000000014
20
-40
42
0.41421356237309437
10
-79
20
-38.000000000000007
10
-79
20
-15
10
-86.000000000000014
20
-14.999999999999993
42
-0.41421356237309537
10
-88
20
-12.999999999999998
10
-88
20
11.912500000000001
10
-83.996164519544848
20
11.912500000000001
42
0.95712618912468328
10
-82.000000000000014
20
12.000000000000002
10
-82.000000000000014
20
15
42
0.95712618912468328
0
LWPOLYLINE
5
101
100
AcDbEntity
8
0
100
AcDbPolyline
90
4
70
1
43
0.0
10
-67.000000000000014
20
11.912500000000001
10
-55.000000000000007
20
11.912500000000001
42
0.99999999999999989
10
-55.000000000000007
20
15.0875
10
-67.000000000000014
20
15.0875
42
0.99999999999999989
0
LWPOLYLINE
5
102
100
AcDbEntity
8
0
100
AcDbPolyline
90
4
70
1
43
0.0
10
-43.900000000000006
20
18.900000465000002
10
-46.099999999999994
20
18.900000465000002
10
-46.099999999999994
20
12.700000465
10
-43.900000000000006
20
12.700000465
0
LWPOLYLINE
5
103
100
AcDbEntity
8
0
100
AcDbPolyline
90
4
70
1
43
0.0
10
-48.900000000000013
20
12.700000465
10
-48.900000000000013
20
18.900000465000002
10
-51.100000000000001
20
18.900000465000002
10
-51.100000000000001
20
12.700000465
0
LWPOLYLINE
5
104
100
AcDbEntity
8
0
100
AcDbPolyline
90
4
70
1
43
0.0
10
-43.900000000000006
20
9.9000004650000015
10
-46.099999999999994
20
9.9000004650000015
10
-46.099999999999994
20
3.7000004649999996
10
-43.900000000000006
20
3.7000004649999996
0
LWPOLYLINE
5
105
100
AcDbEntity
8
0
100
AcDbPolyline
90
4
70
1
43
0.0
10
-51.100000000000001
20
3.7000004649999996
10
-48.900000000000013
20
3.7000004649999996
10
-48.900000000000013
20
9.9000004650000015
10
-51.100000000000001
20
9.9000004650000015
0
LWPOLYLINE
5
106
100
AcDbEntity
8
0
100
AcDbPolyline
90
4
70
1
43
0.0
10
-75.900000000000006
20
3.7000004649999996
10
-75.900000000000006
20
9.9000004650000015
10
-78.100000000000009
20
9.9000004650000015
10
-78.100000000000009
20
3.7000004649999996
0
LWPOLYLINE
5
107
100
AcDbEntity
8
0
100
AcDbPolyline
90
4
70
1
43
0.0
10
-73.100000000000009
20
9.9000004650000015
10
-73.100000000000009
20
3.7000004649999996
10
-70.900000000000006
20
3.7000004649999996
10
-70.900000000000006
20
9.9000004650000015
0
LWPOLYLINE
5
108
100
AcDbEntity
8
0
100
AcDbPolyline
90
4
70
1
43
0.0
10
-75.900000000000006
20
12.700000465
10
-75.900000000000006
20
18.900000465000002
10
-78.100000000000009
20
18.900000465000002
10
-78.100000000000009
20
12.700000465
0
LWPOLYLINE
5
109
100
AcDbEntity
8
0
100
AcDbPolyline
90
4
70
1
43
0.0
10
-73.100000000000009
20
18.900000465000002
10
-73.100000000000009
20
12.700000465
10
-70.900000000000006
20
12.700000465
10
-70.900000000000006
20
18.900000465000002
0
CIRCLE
5
110
100
AcDbEntity
8
0
100
AcDbCircle
10
-42.000000000000014
20
-10
30
0
40
2
210
0
220
0
230
1
0
CIRCLE
5
111
100
AcDbEntity
8
0
100
AcDbCircle
10
-76
20
-44
30
0
40
2
210
0
220
0
230
1
0
CIRCLE
5
112
100
AcDbEntity
8
0
100
AcDbCircle
10
-110.00000000000001
20
-44
30
0
40
2
210
0
220
0
230
1
0
CIRCLE
5
113
100
AcDbEntity
8
0
100
AcDbCircle
10
-76
20
-10
30
0
40
2
210
0
220
0
230
1
0
ENDSEC
0
SECTION
2
OBJECTS
0
DICTIONARY
5
C
100
AcDbDictionary
3
ACAD_GROUP
350
D
3
ACAD_MLINESTYLE
350
17
0
DICTIONARY
5
D
100
AcDbDictionary
0
DICTIONARY
5
1A
330
C
100
AcDbDictionary
0
DICTIONARY
5
17
100
AcDbDictionary
0
ENDSEC
0
EOF
