0
SECTION
2
HEADER
9
$INSUNITS
70
4
9
$ACADVER
1
AC1014
9
$HANDSEED
5
FFFF
0
ENDSEC
0
SECTION
2
TABLES
0
TABLE
2
VPORT
5
8
100
AcDbSymbolTable
0
ENDTAB
0
TABLE
2
LTYPE
5
5
100
AcDbSymbolTable
0
LTYPE
5
14
100
AcDbSymbolTableRecord
100
AcDbLinetypeTableRecord
2
BYBLOCK
70
0
0
LTYPE
5
15
100
AcDbSymbolTableRecord
100
AcDbLinetypeTableRecord
2
BYLAYER
70
0
0
ENDTAB
0
TABLE
2
LAYER
5
2
100
AcDbSymbolTable
70
2
0
LAYER
5
50
100
AcDbSymbolTableRecord
100
AcDbLayerTableRecord
2
0
70
0
6
CONTINUOUS
0
ENDTAB
0
TABLE
2
STYLE
5
3
100
AcDbSymbolTable
70
1
0
STYLE
5
11
100
AcDbSymbolTableRecord
100
AcDbTextStyleTableRecord
2
STANDARD
70
0
0
ENDTAB
0
TABLE
2
VIEW
5
6
100
AcDbSymbolTable
70
0
0
ENDTAB
0
TABLE
2
UCS
5
7
100
AcDbSymbolTable
70
0
0
ENDTAB
0
TABLE
2
APPID
5
9
100
AcDbSymbolTable
70
2
0
APPID
5
12
100
AcDbSymbolTableRecord
100
AcDbRegAppTableRecord
2
ACAD
70
0
0
ENDTAB
0
TABLE
2
DIMSTYLE
5
A
100
AcDbSymbolTable
70
1
0
ENDTAB
0
TABLE
2
BLOCK_RECORD
5
1
100
AcDbSymbolTable
70
1
0
BLOCK_RECORD
5
1F
100
AcDbSymbolTableRecord
100
AcDbBlockTableRecord
2
*MODEL_SPACE
0
BLOCK_RECORD
5
1B
100
AcDbSymbolTableRecord
100
AcDbBlockTableRecord
2
*PAPER_SPACE
0
ENDTAB
0
ENDSEC
0
SECTION
2
BLOCKS
0
BLOCK
5
20
100
AcDbEntity
100
AcDbBlockBegin
2
*MODEL_SPACE
0
ENDBLK
5
21
100
AcDbEntity
100
AcDbBlockEnd
0
BLOCK
5
1C
100
AcDbEntity
100
AcDbBlockBegin
2
*PAPER_SPACE
0
ENDBLK
5
1D
100
AcDbEntity
100
AcDbBlockEnd
0
ENDSEC
0
SECTION
2
ENTITIES
0
LINE
5
100
100
AcDbEntity
8
0
100
AcDbLine
10
88.996164519544848
20
15.0875
30
0
11
93
21
15.0875
31
0
0
LINE
5
101
100
AcDbEntity
8
0
100
AcDbLine
10
93
20
15.0875
30
0
11
93
21
20.999999999999996
31
0
0
ARC
5
102
100
AcDbEntity
8
0
100
AcDbCircle
10
91
20
21
30
0
40
2.0000000000000107
210
-0
220
0
230
1
100
AcDbArc
50
0
51
90
0
LINE
5
103
100
AcDbEntity
8
0
100
AcDbLine
10
91
20
23.000000000000004
30
0
11
41.000000000000007
21
23.000000000000007
31
0
0
ARC
5
104
100
AcDbEntity
8
0
100
AcDbCircle
10
41.000000000000007
20
21
30
0
40
2.0000000000000062
210
0
220
-0
230
1
100
AcDbArc
50
90
51
180
0
LINE
5
105
100
AcDbEntity
8
0
100
AcDbLine
10
39
20
21
30
0
11
39
21
15.0875
31
0
0
LINE
5
106
100
AcDbEntity
8
0
100
AcDbLine
10
39
20
15.0875
30
0
11
43.003835480455166
21
15.0875
31
0
0
ARC
5
107
100
AcDbEntity
8
0
100
AcDbCircle
10
44
20
15.000000000000002
30
0
40
0.99999999999999645
210
0
220
0
230
1
100
AcDbArc
50
0
51
174.98019986832199
0
LINE
5
108
100
AcDbEntity
8
0
100
AcDbLine
10
45
20
15
30
0
11
45
21
12.000000000000002
31
0
0
ARC
5
109
100
AcDbEntity
8
0
100
AcDbCircle
10
44
20
12
30
0
40
0.99999999999999845
210
0
220
0
230
1
100
AcDbArc
50
-174.98019986832199
51
0
0
LINE
5
110
100
AcDbEntity
8
0
100
AcDbLine
10
43.003835480455166
20
11.912500000000001
30
0
11
39
21
11.912500000000001
31
0
0
LINE
5
111
100
AcDbEntity
8
0
100
AcDbLine
10
39
20
11.912500000000001
30
0
11
39
21
-0.99999999999999645
31
0
0
LINE
5
112
100
AcDbEntity
8
0
100
AcDbLine
10
39
20
-0.99999999999999645
30
0
11
46.359805581276525
21
-11.862416641102786
31
0
0
ARC
5
113
100
AcDbEntity
8
0
100
AcDbCircle
10
51.000000000000007
20
-10
30
0
40
4.9999999988609121
210
0
220
0
230
1
100
AcDbArc
50
201.86885232271339
51
346.8717704792146
0
LINE
5
114
100
AcDbEntity
8
0
100
AcDbLine
10
55.869320892008275
20
-11.13565578000193
30
0
11
58.000000000000007
21
-2.0000000000000018
31
0
0
LINE
5
115
100
AcDbEntity
8
0
100
AcDbLine
10
58.000000000000007
20
-2.0000000000000018
30
0
11
58.000000000000007
21
7.6000004650000008
31
0
0
LINE
5
116
100
AcDbEntity
8
0
100
AcDbLine
10
58.000000000000007
20
7.6000004650000008
30
0
11
60
21
7.6000004650000008
31
0
0
LINE
5
117
100
AcDbEntity
8
0
100
AcDbLine
10
60
20
7.6000004650000008
30
0
11
60
21
9.0000000000000036
31
0
0
ARC
5
118
100
AcDbEntity
8
0
100
AcDbCircle
10
61.000000000000007
20
9.0000000000000018
30
0
40
0.99999999999999867
210
0
220
-0
230
1
100
AcDbArc
50
90
51
180
0
LINE
5
119
100
AcDbEntity
8
0
100
AcDbLine
10
61.000000000000007
20
10
30
0
11
71
21
10
31
0
0
ARC
5
120
100
AcDbEntity
8
0
100
AcDbCircle
10
71
20
9.0000000000000018
30
0
40
0.99999999999999645
210
0
220
0
230
1
100
AcDbArc
50
0
51
90
0
LINE
5
121
100
AcDbEntity
8
0
100
AcDbLine
10
72
20
9
30
0
11
72
21
7.6000004650000008
31
0
0
LINE
5
122
100
AcDbEntity
8
0
100
AcDbLine
10
72
20
7.6000004650000008
30
0
11
74
21
7.6000004650000008
31
0
0
LINE
5
123
100
AcDbEntity
8
0
100
AcDbLine
10
74
20
7.6000004650000008
30
0
11
74
21
-0.99999999999999645
31
0
0
LINE
5
124
100
AcDbEntity
8
0
100
AcDbLine
10
74
20
-0.99999999999999645
30
0
11
78
21
-0.99999999999999645
31
0
0
LINE
5
125
100
AcDbEntity
8
0
100
AcDbLine
10
78
20
-0.99999999999999645
30
0
11
78
21
-46.000000000000007
31
0
0
ARC
5
126
100
AcDbEntity
8
0
100
AcDbCircle
10
80
20
-46.000000000000007
30
0
40
1.9999999999999929
210
0
220
0
230
1
100
AcDbArc
50
180
51
270
0
LINE
5
127
100
AcDbEntity
8
0
100
AcDbLine
10
80
20
-48.000000000000007
30
0
11
86
21
-48.000000000000007
31
0
0
ARC
5
128
100
AcDbEntity
8
0
100
AcDbCircle
10
86
20
-46.000000000000007
30
0
40
2.0000000000000018
210
0
220
0
230
1
100
AcDbArc
50
-90
51
0
0
LINE
5
129
100
AcDbEntity
8
0
100
AcDbLine
10
87.999999999999986
20
-46.000000000000007
30
0
11
88
21
-21
31
0
0
ARC
5
130
100
AcDbEntity
8
0
100
AcDbCircle
10
90
20
-20.999999999999996
30
0
40
1.9999999999999951
210
0
220
-0
230
1
100
AcDbArc
50
90
51
180
0
LINE
5
131
100
AcDbEntity
8
0
100
AcDbLine
10
90
20
-19
30
0
11
91
21
-19.000000000000004
31
0
0
ARC
5
132
100
AcDbEntity
8
0
100
AcDbCircle
10
91
20
-17
30
0
40
2.0000000000000018
210
0
220
0
230
1
100
AcDbArc
50
-90
51
0
0
LINE
5
133
100
AcDbEntity
8
0
100
AcDbLine
10
92.999999999999986
20
-17
30
0
11
93
21
11.912500000000001
31
0
0
LINE
5
134
100
AcDbEntity
8
0
100
AcDbLine
10
93
20
11.912500000000001
30
0
11
88.996164519544848
21
11.912500000000001
31
0
0
ARC
5
135
100
AcDbEntity
8
0
100
AcDbCircle
10
88
20
12
30
0
40
0.99999999999999645
210
0
220
0
230
1
100
AcDbArc
50
180
51
354.98019986832202
0
LINE
5
136
100
AcDbEntity
8
0
100
AcDbLine
10
87.000000000000014
20
12.000000000000002
30
0
11
87.000000000000014
21
15
31
0
0
ARC
5
137
100
AcDbEntity
8
0
100
AcDbCircle
10
88
20
15.000000000000002
30
0
40
0.99999999999999845
210
0
220
-0
230
1
100
AcDbArc
50
5.0198001316779415
51
180
0
LWPOLYLINE
5
138
100
AcDbEntity
8
0
100
AcDbPolyline
90
4
70
1
43
0.0
10
51.000000000000007
20
3.8000004650000019
10
51.000000000000007
20
9.8000004649999983
10
49
20
9.8000004649999983
10
49
20
3.8000004650000019
0
CIRCLE
5
139
100
AcDbEntity
8
0
100
AcDbCircle
10
85
20
-44
30
0
40
2
210
0
220
0
230
1
0
LWPOLYLINE
5
140
100
AcDbEntity
8
0
100
AcDbPolyline
90
4
70
1
43
0.0
10
56.000000000000007
20
3.8000004650000019
10
56.000000000000007
20
9.8000004649999983
10
54
20
9.8000004649999983
10
54
20
3.8000004650000019
0
LWPOLYLINE
5
141
100
AcDbEntity
8
0
100
AcDbPolyline
90
4
70
1
43
0.0
10
72
20
15.0875
10
60
20
15.0875
42
0.99999999999999989
10
60
20
11.912500000000001
10
72
20
11.912500000000001
42
0.99999999999999989
0
LWPOLYLINE
5
142
100
AcDbEntity
8
0
100
AcDbPolyline
90
4
70
1
43
0.0
10
56.000000000000007
20
18.800000465000004
10
54
20
18.800000465000004
10
54
20
12.800000464999997
10
56.000000000000007
20
12.800000464999997
0
CIRCLE
5
143
100
AcDbEntity
8
0
100
AcDbCircle
10
51.000000000000007
20
-10
30
0
40
2
210
0
220
0
230
1
0
CIRCLE
5
144
100
AcDbEntity
8
0
100
AcDbCircle
10
85
20
-10
30
0
40
2
210
0
220
0
230
1
0
LWPOLYLINE
5
145
100
AcDbEntity
8
0
100
AcDbPolyline
90
4
70
1
43
0.0
10
49
20
18.800000465000004
10
49
20
12.800000464999997
10
51.000000000000007
20
12.800000464999997
10
51.000000000000007
20
18.800000465000004
0
LWPOLYLINE
5
146
100
AcDbEntity
8
0
100
AcDbPolyline
90
4
70
1
43
0.0
10
83.100000000000009
20
12.700000464999999
10
83.100000000000009
20
18.900000464999998
10
80.90000000000002
20
18.900000464999998
10
80.90000000000002
20
12.700000464999999
0
LWPOLYLINE
5
147
100
AcDbEntity
8
0
100
AcDbPolyline
90
4
70
1
43
0.0
10
83.100000000000009
20
3.700000465000004
10
83.100000000000009
20
9.9000004650000051
10
80.90000000000002
20
9.9000004650000051
10
80.90000000000002
20
3.700000465000004
0
LWPOLYLINE
5
148
100
AcDbEntity
8
0
100
AcDbPolyline
90
4
70
1
43
0.0
10
75.900000000000006
20
12.700000464999999
10
78.099999999999994
20
12.700000464999999
10
78.099999999999994
20
18.900000464999998
10
75.900000000000006
20
18.900000464999998
0
LWPOLYLINE
5
149
100
AcDbEntity
8
0
100
AcDbPolyline
90
4
70
1
43
0.0
10
78.099999999999994
20
9.9000004650000051
10
75.900000000000006
20
9.9000004650000051
10
75.900000000000006
20
3.700000465000004
10
78.099999999999994
20
3.700000465000004
0
ENDSEC
0
SECTION
2
OBJECTS
0
DICTIONARY
5
C
100
AcDbDictionary
3
ACAD_GROUP
350
D
3
ACAD_MLINESTYLE
350
17
0
DICTIONARY
5
D
100
AcDbDictionary
0
DICTIONARY
5
1A
330
C
100
AcDbDictionary
0
DICTIONARY
5
17
100
AcDbDictionary
0
ENDSEC
0
EOF
